<svg xmlns="http://www.w3.org/2000/svg" version="1.1" xmlns:xlink="http://www.w3.org/1999/xlink" xmlns:svgjs="http://svgjs.com/svgjs" width="512" height="512" x="0" y="0" viewBox="0 0 512 512" style="enable-background:new 0 0 512 512" xml:space="preserve" class=""><g><path d="m286.281 304.363 71.743-124.261c29.308-50.764 11.753-116.271-39.011-145.578C268.25 5.216 202.744 22.768 173.436 73.53L98.834 202.739l178.428 103.022c2.944-.495 5.951-.962 9.019-1.398z" style="" fill="#bde5f8" data-original="#bde5f8" class=""></path><path d="M277.263 305.762 98.834 202.739 24.233 331.955c-29.309 50.764-11.755 116.271 39.01 145.578 47.939 27.678 109.021 13.558 140.354-30.852l.001-104.151c0-15.669 29.585-29.363 73.665-36.768z" style="" fill="#07270d" data-original="#f63d53" class=""></path><path d="M277.263 305.762c-44.08 7.405-73.665 21.1-73.665 36.769 0 15.101 27.473 28.365 68.915 35.936l162.174-71.577c-23.508-4.42-51.647-6.989-81.889-6.989-23.901 0-46.49 1.607-66.516 4.463-3.069.435-6.076.902-9.019 1.398zM434.687 306.891l-162.174 71.577c23.179 4.236 50.728 6.693 80.285 6.693 82.4 0 149.2-19.085 149.2-42.63 0-14.906-26.766-28.022-67.311-35.64z" style="" fill="#e1e6e9" data-original="#e1e6e9"></path><path d="M501.998 342.53c0 23.545-66.799 42.63-149.199 42.63-29.557 0-57.106-2.457-80.285-6.693-41.442-7.571-68.915-20.837-68.916-35.936v106.571c0 23.545 66.8 42.63 149.202 42.63 82.4 0 149.201-19.085 149.201-42.63l-.003-106.572z" style="" fill="#bccbd3" data-original="#bccbd3" class=""></path><path d="M198.745 99.688a9.994 9.994 0 0 0 13.659-3.66c8.291-14.362 21.837-24.565 38.142-28.728 5.351-1.367 8.58-6.812 7.214-12.163a9.997 9.997 0 0 0-12.163-7.214c-21.566 5.508-39.506 19.041-50.512 38.106-2.761 4.783-1.122 10.898 3.66 13.659zM276.074 66.17a9.992 9.992 0 0 0 1.722.149c4.739 0 8.948-3.385 9.826-8.212.987-5.434-2.616-10.639-8.049-11.627-.15-.027-.301-.052-.461-.076-5.452-.836-10.519 2.903-11.365 8.353-.844 5.439 2.899 10.54 8.327 11.413z" fill="#000000" data-original="#000000" class=""></path><path d="M512 342.53c0-16.69-17.172-30.058-51.036-39.733-7.361-2.103-15.322-3.966-23.761-5.578a10.067 10.067 0 0 0-1.457-.265c-24.6-4.586-53.165-7.053-82.946-7.053-16.499 0-32.614.767-47.904 2.22l61.789-107.018c15.51-26.865 19.602-58.267 11.521-88.424-8.081-30.155-27.327-55.304-54.191-70.813-55.667-32.138-127.1-13-159.237 42.665L90.195 197.708c-.007.011-.015.02-.021.031l-.017.033-74.584 129.183C.062 353.82-4.029 385.222 4.051 415.379c8.08 30.155 27.326 55.305 54.191 70.813a115.807 115.807 0 0 0 57.982 15.538c8.53 0 17.112-.936 25.6-2.832 22.589-5.043 42.897-16.489 58.644-32.805 7.914 9.019 22.642 16.642 44.08 22.766 29.049 8.299 67.491 12.87 108.248 12.87 40.756 0 79.199-4.571 108.247-12.87 33.809-9.659 50.952-23.036 50.952-39.759V342.59a.394.394 0 0 0 .005-.06zm-19.999-.016-.001.017v.027c-.041 2.831-6.654 11.94-36.529 20.478-27.366 7.817-63.829 12.124-102.671 12.124-15.063 0-29.757-.655-43.713-1.904l126.717-55.928c6.953 1.388 13.548 2.95 19.666 4.698 29.915 8.546 36.506 17.67 36.531 20.488zm-93.612-30.534-127.03 56.066c-7.536-1.463-14.651-3.134-21.23-5.013-29.969-8.563-36.531-17.705-36.531-20.505 0-2.8 6.563-11.942 36.532-20.506 27.366-7.818 63.829-12.125 102.67-12.125 15.741.002 31.076.721 45.589 2.083zM182.096 78.53c26.624-46.115 85.803-61.97 131.919-35.346 22.238 12.839 38.175 33.676 44.874 58.671 6.698 24.996 3.316 51.009-9.522 73.248L280.021 295.21c-.271.042-.536.089-.807.132l-166.72-96.262 69.602-120.55zM68.243 468.873c-22.239-12.839-38.176-33.676-44.874-58.671-6.698-24.996-3.315-51.009 9.523-73.248l69.603-120.556 147.233 85.011c-1.725.451-3.429.911-5.094 1.387-33.829 9.665-50.997 23.016-51.034 39.68 0 .019-.003.035-.003.054v100.85c-29.004 38.408-83.428 49.701-125.354 25.493zm387.309.757c-27.312 7.803-63.804 12.101-102.754 12.101s-75.443-4.298-102.755-12.101c-29.9-8.542-36.447-17.716-36.447-20.53v-79.266c7.979 4.649 18.335 8.798 31.039 12.428 7.846 2.242 16.388 4.202 25.448 5.884.44.111.886.194 1.339.244 24.243 4.4 52.225 6.768 81.377 6.768 40.647 0 79.061-4.58 108.164-12.895 12.702-3.629 23.056-7.777 31.036-12.426v79.264c.001 2.813-6.547 11.988-36.447 20.529z" fill="#000000" data-original="#000000" class=""></path></g></svg>