<svg xmlns="http://www.w3.org/2000/svg" xmlns:xlink="http://www.w3.org/1999/xlink" width="414" zoomAndPan="magnify" viewBox="0 0 310.5 671.999985" height="896" preserveAspectRatio="xMidYMid meet" version="1.0"><defs><g/><clipPath id="e073213938"><path d="M 0 0.539062 L 310 0.539062 L 310 671.457031 L 0 671.457031 Z M 0 0.539062 " clip-rule="nonzero"/></clipPath><clipPath id="87fbb4502a"><path d="M 0 0.539062 L 310 0.539062 L 310 286 L 0 286 Z M 0 0.539062 " clip-rule="nonzero"/></clipPath><clipPath id="28d923d9af"><path d="M 97.605469 278.21875 C 115.355469 283.605469 135.539062 287.136719 155.34375 287.136719 C 175.148438 287.136719 194.207031 284.109375 211.773438 278.722656 C 212.144531 278.554688 212.519531 278.554688 212.894531 278.386719 C 278.851562 256.851562 327.433594 199.976562 328.367188 135.589844 L 328.367188 0.539062 L -17.867188 0.539062 L -17.867188 135.492188 C -16.933594 200.3125 30.902344 257.1875 97.605469 278.21875 " clip-rule="nonzero"/></clipPath><clipPath id="be6e581c5b"><path d="M 92.3125 210.664062 L 218.1875 210.664062 L 218.1875 336.539062 L 92.3125 336.539062 Z M 92.3125 210.664062 " clip-rule="nonzero"/></clipPath><clipPath id="af640db2cc"><path d="M 155.25 210.664062 C 120.488281 210.664062 92.3125 238.84375 92.3125 273.601562 C 92.3125 308.363281 120.488281 336.539062 155.25 336.539062 C 190.011719 336.539062 218.1875 308.363281 218.1875 273.601562 C 218.1875 238.84375 190.011719 210.664062 155.25 210.664062 " clip-rule="nonzero"/></clipPath><clipPath id="4a046e345b"><path d="M 162 293 L 182.445312 293 L 182.445312 312 L 162 312 Z M 162 293 " clip-rule="nonzero"/></clipPath></defs><g clip-path="url(#e073213938)"><path fill="#ffffff" d="M 0 0.539062 L 310.5 0.539062 L 310.5 680.039062 L 0 680.039062 Z M 0 0.539062 " fill-opacity="1" fill-rule="nonzero"/><path fill="#ffffff" d="M 0 0.539062 L 310.5 0.539062 L 310.5 672.539062 L 0 672.539062 Z M 0 0.539062 " fill-opacity="1" fill-rule="nonzero"/><path fill="#ffffff" d="M 0 0.539062 L 310.5 0.539062 L 310.5 672.539062 L 0 672.539062 Z M 0 0.539062 " fill-opacity="1" fill-rule="nonzero"/></g><g clip-path="url(#87fbb4502a)"><g clip-path="url(#28d923d9af)"><path fill="#021d42" d="M -17.867188 0.539062 L 326.601562 0.539062 L 326.601562 285.617188 L -17.867188 285.617188 Z M -17.867188 0.539062 " fill-opacity="1" fill-rule="nonzero"/></g></g><g clip-path="url(#be6e581c5b)"><g clip-path="url(#af640db2cc)"><path fill="#5271ff" d="M 92.3125 210.664062 L 218.1875 210.664062 L 218.1875 336.539062 L 92.3125 336.539062 Z M 92.3125 210.664062 " fill-opacity="1" fill-rule="nonzero"/></g></g><path fill="#d76b73" d="M 137.898438 288.78125 L 132.855469 271.191406 C 132.855469 271.191406 128.125 272.558594 126.554688 272.988281 C 122.890625 274 117.195312 277.566406 119.109375 284.191406 C 121.378906 292.078125 128.066406 291.589844 131.609375 290.578125 C 133.820312 289.96875 137.898438 288.78125 137.898438 288.78125 Z M 137.898438 288.78125 " fill-opacity="1" fill-rule="nonzero"/><path fill="#303030" d="M 162.902344 295.75 L 180.992188 293.195312 C 180.992188 293.195312 180.3125 288.320312 180.089844 286.6875 C 179.597656 282.914062 176.871094 276.761719 170.046875 277.730469 C 161.9375 278.871094 161.492188 285.585938 161.980469 289.242188 C 162.292969 291.558594 162.902344 295.75 162.902344 295.75 Z M 162.902344 295.75 " fill-opacity="1" fill-rule="nonzero"/><path fill="#74aedb" d="M 172.957031 257.003906 L 156.226562 249.652344 C 156.226562 249.652344 154.253906 254.167969 153.574219 255.652344 C 152 259.113281 151.097656 265.785156 157.414062 268.5625 C 164.917969 271.859375 168.816406 266.394531 170.316406 263.019531 C 171.265625 260.898438 172.957031 257.003906 172.957031 257.003906 Z M 172.957031 257.003906 " fill-opacity="1" fill-rule="nonzero"/><path fill="#e8e8e8" d="M 137.898438 288.78125 L 132.855469 271.191406 C 132.855469 271.191406 137.585938 269.855469 139.160156 269.394531 C 142.792969 268.324219 149.523438 268.339844 151.421875 274.964844 C 153.691406 282.855469 147.746094 285.972656 144.214844 287 C 141.960938 287.636719 137.898438 288.78125 137.898438 288.78125 Z M 137.898438 288.78125 " fill-opacity="1" fill-rule="nonzero"/><g clip-path="url(#4a046e345b)"><path fill="#e8e8e8" d="M 162.902344 295.75 L 180.992188 293.195312 C 180.992188 293.195312 181.644531 298.066406 181.898438 299.683594 C 182.445312 303.445312 181.496094 310.113281 174.675781 311.078125 C 166.5625 312.222656 164.308594 305.894531 163.789062 302.253906 C 163.464844 299.953125 162.902344 295.75 162.902344 295.75 Z M 162.902344 295.75 " fill-opacity="1" fill-rule="nonzero"/></g><path fill="#e8e8e8" d="M 172.957031 257.003906 L 156.226562 249.652344 C 156.226562 249.652344 158.230469 245.164062 158.867188 243.648438 C 160.363281 240.160156 164.679688 234.988281 170.984375 237.765625 C 178.488281 241.066406 177.078125 247.628906 175.59375 251.003906 C 174.691406 253.140625 172.957031 257.003906 172.957031 257.003906 Z M 172.957031 257.003906 " fill-opacity="1" fill-rule="nonzero"/><path fill="#ffffff" d="M 129.222656 287.5625 C 129.148438 287.308594 128.910156 287.160156 128.675781 287.191406 C 127.84375 287.324219 126.984375 287.160156 126.210938 286.714844 C 125.441406 286.269531 124.863281 285.585938 124.535156 284.769531 C 124.433594 284.53125 124.179688 284.398438 123.945312 284.457031 C 123.660156 284.53125 123.511719 284.84375 123.632812 285.125 C 124.046875 286.167969 124.789062 287.027344 125.753906 287.59375 C 126.71875 288.15625 127.800781 288.367188 128.851562 288.1875 C 129.132812 288.140625 129.296875 287.84375 129.222656 287.5625 Z M 129.222656 287.5625 " fill-opacity="1" fill-rule="nonzero"/><path fill="#ffffff" d="M 165.316406 287.324219 C 165.570312 287.296875 165.761719 287.074219 165.761719 286.820312 C 165.75 285.972656 166.03125 285.140625 166.578125 284.457031 C 167.128906 283.761719 167.882812 283.285156 168.742188 283.0625 C 168.996094 283.003906 169.160156 282.765625 169.128906 282.527344 C 169.085938 282.246094 168.804688 282.050781 168.507812 282.125 C 167.425781 282.394531 166.460938 283.015625 165.777344 283.878906 C 165.082031 284.753906 164.738281 285.796875 164.753906 286.863281 C 164.753906 287.148438 165.023438 287.371094 165.316406 287.324219 Z M 165.316406 287.324219 " fill-opacity="1" fill-rule="nonzero"/><path fill="#ffffff" d="M 166.476562 262.902344 C 166.238281 262.796875 165.96875 262.886719 165.835938 263.09375 C 165.40625 263.824219 164.726562 264.386719 163.910156 264.683594 C 163.078125 264.980469 162.175781 264.996094 161.328125 264.730469 C 161.078125 264.65625 160.824219 264.757812 160.722656 264.980469 C 160.601562 265.25 160.75 265.5625 161.03125 265.652344 C 162.101562 265.992188 163.242188 265.976562 164.28125 265.589844 C 165.332031 265.207031 166.179688 264.507812 166.726562 263.585938 C 166.875 263.347656 166.757812 263.019531 166.476562 262.902344 Z M 166.476562 262.902344 " fill-opacity="1" fill-rule="nonzero"/><g fill="#000000" fill-opacity="1"><g transform="translate(39.793232, 456.21012)"><g><path d="M 4.015625 0 L 8.734375 0 L 8.734375 -23.03125 L 17.285156 -10.324219 L 19.945312 -10.324219 L 28.496094 -23.03125 L 28.496094 0 L 33.167969 0 L 33.167969 -32.699219 L 29.429688 -32.699219 L 18.640625 -16.816406 L 7.847656 -32.699219 L 4.015625 -32.699219 Z M 4.015625 0 "/></g></g></g><g fill="#000000" fill-opacity="1"><g transform="translate(76.923669, 456.21012)"><g><path d="M 28.308594 -13.734375 C 27.792969 -21.675781 21.628906 -25.644531 15.367188 -25.644531 C 8.6875 -25.644531 2.242188 -21.300781 2.242188 -12.613281 C 2.242188 -3.925781 8.78125 0.46875 15.277344 0.46875 C 20.460938 0.46875 25.644531 -2.289062 27.5625 -7.800781 L 22.84375 -7.800781 C 21.347656 -4.953125 18.453125 -3.597656 15.320312 -3.597656 C 11.539062 -3.597656 6.820312 -6.585938 6.820312 -11.539062 L 28.214844 -11.539062 C 28.308594 -11.957031 28.355469 -12.425781 28.355469 -12.941406 C 28.355469 -13.21875 28.355469 -13.453125 28.308594 -13.734375 Z M 23.496094 -15.320312 L 7.007812 -15.320312 C 7.941406 -19.808594 11.679688 -21.628906 15.367188 -21.628906 C 19.011719 -21.628906 22.609375 -19.851562 23.496094 -15.320312 Z M 23.496094 -15.320312 "/></g></g></g><g fill="#000000" fill-opacity="1"><g transform="translate(107.748947, 456.21012)"><g><path d="M 28.355469 -32.699219 L 23.777344 -32.699219 L 23.777344 -22.003906 C 21.582031 -24.992188 18.40625 -25.691406 15.277344 -25.691406 C 6.726562 -25.691406 1.867188 -19.992188 1.867188 -12.753906 C 1.867188 -5.230469 6.492188 0.421875 15.320312 0.421875 C 18.5 0.375 21.957031 -0.652344 23.777344 -3.410156 L 23.777344 0 L 28.355469 0 Z M 23.777344 -12.660156 C 23.777344 -6.585938 19.527344 -3.644531 15.230469 -3.644531 C 9.667969 -3.644531 6.445312 -7.472656 6.445312 -12.660156 C 6.445312 -17.191406 9.667969 -21.675781 15.277344 -21.675781 C 19.527344 -21.675781 23.777344 -18.6875 23.777344 -12.660156 Z M 23.777344 -12.660156 "/></g></g></g><g fill="#000000" fill-opacity="1"><g transform="translate(139.695143, 456.21012)"><g><path d="M 3.222656 -31.765625 C 3.222656 -29.992188 4.671875 -29.101562 6.074219 -29.101562 C 7.519531 -29.101562 8.921875 -29.992188 8.921875 -31.765625 C 8.921875 -33.539062 7.519531 -34.382812 6.121094 -34.382812 C 4.671875 -34.382812 3.222656 -33.492188 3.222656 -31.765625 Z M 3.785156 -25.550781 L 8.363281 -25.550781 L 8.363281 0 L 3.785156 0 Z M 3.785156 -25.550781 "/></g></g></g><g fill="#000000" fill-opacity="1"><g transform="translate(152.258781, 456.21012)"><g><path d="M 1.820312 -16.257812 C 1.820312 -11.726562 3.785156 -7.566406 6.585938 -4.578125 C 9.4375 -1.589844 13.546875 0.234375 17.984375 0.234375 C 25.597656 0.234375 31.578125 -4.8125 33.445312 -12.238281 L 28.824219 -12.238281 C 27.140625 -7.289062 22.9375 -4.4375 17.984375 -4.4375 C 14.855469 -4.4375 11.726562 -5.746094 9.667969 -7.894531 C 7.613281 -10.042969 6.398438 -12.988281 6.398438 -16.257812 C 6.398438 -19.621094 7.660156 -22.515625 9.714844 -24.664062 C 11.773438 -26.8125 14.855469 -28.308594 17.984375 -28.308594 C 22.796875 -28.308594 26.8125 -25.691406 28.542969 -20.789062 L 33.214844 -20.789062 C 31.34375 -28.167969 25.460938 -32.980469 17.984375 -32.980469 C 13.546875 -32.980469 9.296875 -30.925781 6.445312 -27.980469 C 3.644531 -24.992188 1.820312 -20.882812 1.820312 -16.257812 Z M 1.820312 -16.257812 "/></g></g></g><g fill="#000000" fill-opacity="1"><g transform="translate(187.474317, 456.21012)"><g><path d="M 29.757812 0 L 29.757812 -25.273438 L 25.179688 -25.273438 L 25.226562 -21.910156 C 22.984375 -24.945312 19.199219 -25.691406 16.070312 -25.691406 C 7.519531 -25.691406 2.570312 -19.574219 2.570312 -12.753906 C 2.570312 -5.792969 7.335938 0.421875 16.164062 0.421875 C 19.292969 0.375 23.355469 -0.652344 25.179688 -3.410156 L 25.179688 0 Z M 25.179688 -12.660156 C 25.179688 -6.585938 20.273438 -3.644531 16.070312 -3.644531 C 10.464844 -3.644531 7.148438 -7.988281 7.148438 -12.753906 C 7.148438 -17.75 10.511719 -21.675781 16.070312 -21.675781 C 20.367188 -21.675781 25.179688 -18.6875 25.179688 -12.660156 Z M 25.179688 -12.660156 "/></g></g></g><g fill="#000000" fill-opacity="1"><g transform="translate(220.261201, 456.21012)"><g><path d="M 8.035156 -22.140625 L 8.035156 -25.226562 L 3.503906 -25.226562 L 3.503906 0 L 8.035156 0 L 8.035156 -13.6875 C 8.035156 -18.3125 11.585938 -21.722656 15.835938 -21.722656 C 16.582031 -21.722656 17.378906 -21.628906 18.171875 -21.394531 L 18.171875 -25.414062 C 17.144531 -25.644531 16.164062 -25.785156 15.183594 -25.785156 C 12.378906 -25.785156 9.855469 -24.664062 8.035156 -22.140625 Z M 8.035156 -22.140625 "/></g></g></g><g fill="#000000" fill-opacity="1"><g transform="translate(239.877277, 456.21012)"><g><path d="M 28.308594 -13.734375 C 27.792969 -21.675781 21.628906 -25.644531 15.367188 -25.644531 C 8.6875 -25.644531 2.242188 -21.300781 2.242188 -12.613281 C 2.242188 -3.925781 8.78125 0.46875 15.277344 0.46875 C 20.460938 0.46875 25.644531 -2.289062 27.5625 -7.800781 L 22.84375 -7.800781 C 21.347656 -4.953125 18.453125 -3.597656 15.320312 -3.597656 C 11.539062 -3.597656 6.820312 -6.585938 6.820312 -11.539062 L 28.214844 -11.539062 C 28.308594 -11.957031 28.355469 -12.425781 28.355469 -12.941406 C 28.355469 -13.21875 28.355469 -13.453125 28.308594 -13.734375 Z M 23.496094 -15.320312 L 7.007812 -15.320312 C 7.941406 -19.808594 11.679688 -21.628906 15.367188 -21.628906 C 19.011719 -21.628906 22.609375 -19.851562 23.496094 -15.320312 Z M 23.496094 -15.320312 "/></g></g></g><g fill="#000000" fill-opacity="1"><g transform="translate(69.580977, 510.922656)"><g><path d="M 2.179688 -2.230469 L 5.753906 -2.230469 L 6.597656 0 L 7.957031 0 L 4.417969 -8.925781 L 3.488281 -8.925781 L -0.0507812 0 L 1.320312 0 Z M 5.289062 -3.425781 L 2.644531 -3.425781 L 3.964844 -6.898438 Z M 5.289062 -3.425781 "/></g></g></g><g fill="#000000" fill-opacity="1"><g transform="translate(77.562284, 510.922656)"><g/></g></g><g fill="#000000" fill-opacity="1"><g transform="translate(80.696898, 510.922656)"><g><path d="M 0.933594 1.988281 L 2.164062 1.988281 L 2.164062 -0.894531 C 2.769531 -0.0898438 3.613281 0.113281 4.457031 0.113281 C 6.761719 0.113281 7.96875 -1.535156 7.96875 -3.386719 C 7.96875 -5.25 6.835938 -6.925781 4.46875 -6.925781 C 3.613281 -6.925781 2.65625 -6.648438 2.164062 -5.90625 L 2.164062 -6.8125 L 0.933594 -6.8125 Z M 2.164062 -3.414062 C 2.164062 -5.035156 3.324219 -5.84375 4.46875 -5.84375 C 5.96875 -5.84375 6.734375 -4.644531 6.734375 -3.414062 C 6.734375 -2.191406 5.96875 -0.980469 4.457031 -0.980469 C 3.3125 -0.980469 2.164062 -1.789062 2.164062 -3.414062 Z M 2.164062 -3.414062 "/></g></g></g><g fill="#000000" fill-opacity="1"><g transform="translate(89.37059, 510.922656)"><g><path d="M 0.945312 0 L 2.179688 0 L 2.179688 -8.8125 L 0.945312 -8.8125 Z M 0.945312 0 "/></g></g></g><g fill="#000000" fill-opacity="1"><g transform="translate(92.492616, 510.922656)"><g><path d="M 8.019531 0 L 8.019531 -6.8125 L 6.785156 -6.8125 L 6.800781 -5.90625 C 6.195312 -6.722656 5.175781 -6.925781 4.332031 -6.925781 C 2.027344 -6.925781 0.691406 -5.277344 0.691406 -3.4375 C 0.691406 -1.5625 1.976562 0.113281 4.355469 0.113281 C 5.199219 0.101562 6.296875 -0.175781 6.785156 -0.917969 L 6.785156 0 Z M 6.785156 -3.414062 C 6.785156 -1.773438 5.464844 -0.980469 4.332031 -0.980469 C 2.820312 -0.980469 1.925781 -2.152344 1.925781 -3.4375 C 1.925781 -4.785156 2.832031 -5.84375 4.332031 -5.84375 C 5.488281 -5.84375 6.785156 -5.035156 6.785156 -3.414062 Z M 6.785156 -3.414062 "/></g></g></g><g fill="#000000" fill-opacity="1"><g transform="translate(101.329964, 510.922656)"><g><path d="M 2.554688 -6.8125 L 2.554688 -8.324219 L 1.320312 -8.082031 L 1.320312 -6.8125 L 0.300781 -6.8125 L 0.300781 -5.828125 L 1.320312 -5.828125 L 1.320312 -2.003906 C 1.320312 -0.414062 2.191406 0.0390625 3.527344 0.0390625 C 3.703125 0.0390625 3.890625 0.0234375 4.09375 0.0117188 L 4.09375 -1.019531 C 3.902344 -1.007812 3.726562 -0.996094 3.574219 -0.996094 C 2.957031 -0.996094 2.554688 -1.183594 2.554688 -1.988281 L 2.554688 -5.828125 L 4.054688 -5.828125 L 4.054688 -6.8125 Z M 2.554688 -6.8125 "/></g></g></g><g fill="#000000" fill-opacity="1"><g transform="translate(105.660516, 510.922656)"><g><path d="M 1.449219 0 L 2.683594 0 L 2.683594 -5.792969 L 4.066406 -5.792969 L 4.066406 -6.863281 L 2.683594 -6.863281 C 2.683594 -7.707031 3.121094 -7.917969 3.777344 -7.917969 C 3.914062 -7.917969 4.066406 -7.90625 4.21875 -7.894531 L 4.21875 -8.925781 C 4.042969 -8.941406 3.878906 -8.953125 3.726562 -8.953125 C 2.242188 -8.953125 1.449219 -8.347656 1.449219 -6.863281 L 0.402344 -6.863281 L 0.402344 -5.792969 L 1.449219 -5.792969 Z M 1.449219 0 "/></g></g></g><g fill="#000000" fill-opacity="1"><g transform="translate(110.07919, 510.922656)"><g><path d="M 7.996094 -3.398438 C 7.996094 -5.742188 6.183594 -6.925781 4.34375 -6.925781 C 2.492188 -6.925781 0.65625 -5.753906 0.65625 -3.398438 C 0.65625 -1.058594 2.480469 0.125 4.304688 0.125 C 6.15625 0.125 7.996094 -1.046875 7.996094 -3.398438 Z M 1.890625 -3.398438 C 1.890625 -5.023438 3.109375 -5.828125 4.34375 -5.828125 C 5.554688 -5.828125 6.773438 -5.011719 6.773438 -3.398438 C 6.773438 -1.800781 5.554688 -0.980469 4.332031 -0.980469 C 3.109375 -0.980469 1.890625 -1.789062 1.890625 -3.398438 Z M 1.890625 -3.398438 "/></g></g></g><g fill="#000000" fill-opacity="1"><g transform="translate(118.815827, 510.922656)"><g><path d="M 2.164062 -5.96875 L 2.164062 -6.800781 L 0.945312 -6.800781 L 0.945312 0 L 2.164062 0 L 2.164062 -3.6875 C 2.164062 -4.9375 3.121094 -5.855469 4.269531 -5.855469 C 4.46875 -5.855469 4.683594 -5.828125 4.898438 -5.765625 L 4.898438 -6.851562 C 4.621094 -6.914062 4.355469 -6.949219 4.09375 -6.949219 C 3.335938 -6.949219 2.65625 -6.648438 2.164062 -5.96875 Z M 2.164062 -5.96875 "/></g></g></g><g fill="#000000" fill-opacity="1"><g transform="translate(124.103131, 510.922656)"><g><path d="M 2.34375 -5.96875 L 2.34375 -6.925781 L 1.109375 -6.925781 L 1.109375 0 L 2.34375 0 L 2.34375 -3.703125 C 2.34375 -5.035156 3.160156 -5.78125 4.242188 -5.78125 C 5.375 -5.78125 5.742188 -4.785156 5.742188 -3.828125 L 5.742188 0 L 6.976562 0 L 6.976562 -3.839844 C 6.976562 -4.949219 7.578125 -5.78125 8.789062 -5.78125 C 9.972656 -5.78125 10.210938 -4.824219 10.210938 -3.867188 L 10.210938 0 L 11.445312 0 L 11.445312 -3.878906 C 11.445312 -5.601562 10.628906 -6.925781 8.75 -6.925781 C 7.757812 -6.914062 6.988281 -6.496094 6.574219 -5.742188 C 6.070312 -6.699219 5.210938 -6.925781 4.253906 -6.925781 C 3.460938 -6.925781 2.808594 -6.648438 2.34375 -5.96875 Z M 2.34375 -5.96875 "/></g></g></g><g fill="#000000" fill-opacity="1"><g transform="translate(136.503109, 510.922656)"><g/></g></g><g fill="#000000" fill-opacity="1"><g transform="translate(139.637726, 510.922656)"><g><path d="M 2.214844 -5.929688 L 2.214844 -8.8125 L 0.980469 -8.8125 L 0.980469 0 L 2.214844 0 L 2.214844 -0.917969 C 2.707031 -0.175781 3.640625 0.101562 4.484375 0.113281 C 6.863281 0.113281 8.007812 -1.5625 8.007812 -3.4375 C 8.007812 -5.277344 6.8125 -6.925781 4.507812 -6.925781 C 3.664062 -6.925781 2.808594 -6.734375 2.214844 -5.929688 Z M 2.214844 -3.414062 C 2.214844 -5.035156 3.363281 -5.84375 4.507812 -5.84375 C 6.019531 -5.84375 6.773438 -4.632812 6.773438 -3.414062 C 6.773438 -2.179688 6.007812 -0.980469 4.496094 -0.980469 C 3.363281 -0.980469 2.214844 -1.773438 2.214844 -3.414062 Z M 2.214844 -3.414062 "/></g></g></g><g fill="#000000" fill-opacity="1"><g transform="translate(148.210705, 510.922656)"><g><path d="M 5.96875 -0.894531 L 5.96875 0 L 7.140625 0 L 7.140625 -6.875 L 5.90625 -6.875 L 5.90625 -3.109375 C 5.90625 -1.914062 5.199219 -0.996094 3.902344 -0.996094 C 2.417969 -0.996094 2.089844 -1.875 2.089844 -3.148438 L 2.089844 -6.875 L 0.855469 -6.875 L 0.855469 -3.148438 C 0.855469 -1.195312 1.75 0.101562 3.816406 0.101562 C 4.695312 0.101562 5.464844 -0.152344 5.96875 -0.894531 Z M 5.96875 -0.894531 "/></g></g></g><g fill="#000000" fill-opacity="1"><g transform="translate(156.317899, 510.922656)"><g><path d="M 0.867188 -8.5625 C 0.867188 -8.082031 1.257812 -7.84375 1.636719 -7.84375 C 2.027344 -7.84375 2.40625 -8.082031 2.40625 -8.5625 C 2.40625 -9.039062 2.027344 -9.265625 1.648438 -9.265625 C 1.257812 -9.265625 0.867188 -9.027344 0.867188 -8.5625 Z M 1.019531 -6.886719 L 2.253906 -6.886719 L 2.253906 0 L 1.019531 0 Z M 1.019531 -6.886719 "/></g></g></g><g fill="#000000" fill-opacity="1"><g transform="translate(159.704291, 510.922656)"><g><path d="M 0.945312 0 L 2.179688 0 L 2.179688 -8.8125 L 0.945312 -8.8125 Z M 0.945312 0 "/></g></g></g><g fill="#000000" fill-opacity="1"><g transform="translate(162.826314, 510.922656)"><g><path d="M 2.554688 -6.8125 L 2.554688 -8.324219 L 1.320312 -8.082031 L 1.320312 -6.8125 L 0.300781 -6.8125 L 0.300781 -5.828125 L 1.320312 -5.828125 L 1.320312 -2.003906 C 1.320312 -0.414062 2.191406 0.0390625 3.527344 0.0390625 C 3.703125 0.0390625 3.890625 0.0234375 4.09375 0.0117188 L 4.09375 -1.019531 C 3.902344 -1.007812 3.726562 -0.996094 3.574219 -0.996094 C 2.957031 -0.996094 2.554688 -1.183594 2.554688 -1.988281 L 2.554688 -5.828125 L 4.054688 -5.828125 L 4.054688 -6.8125 Z M 2.554688 -6.8125 "/></g></g></g><g fill="#000000" fill-opacity="1"><g transform="translate(167.156869, 510.922656)"><g/></g></g><g fill="#000000" fill-opacity="1"><g transform="translate(170.291486, 510.922656)"><g><path d="M 1.449219 0 L 2.683594 0 L 2.683594 -5.792969 L 4.066406 -5.792969 L 4.066406 -6.863281 L 2.683594 -6.863281 C 2.683594 -7.707031 3.121094 -7.917969 3.777344 -7.917969 C 3.914062 -7.917969 4.066406 -7.90625 4.21875 -7.894531 L 4.21875 -8.925781 C 4.042969 -8.941406 3.878906 -8.953125 3.726562 -8.953125 C 2.242188 -8.953125 1.449219 -8.347656 1.449219 -6.863281 L 0.402344 -6.863281 L 0.402344 -5.792969 L 1.449219 -5.792969 Z M 1.449219 0 "/></g></g></g><g fill="#000000" fill-opacity="1"><g transform="translate(174.71016, 510.922656)"><g><path d="M 7.996094 -3.398438 C 7.996094 -5.742188 6.183594 -6.925781 4.34375 -6.925781 C 2.492188 -6.925781 0.65625 -5.753906 0.65625 -3.398438 C 0.65625 -1.058594 2.480469 0.125 4.304688 0.125 C 6.15625 0.125 7.996094 -1.046875 7.996094 -3.398438 Z M 1.890625 -3.398438 C 1.890625 -5.023438 3.109375 -5.828125 4.34375 -5.828125 C 5.554688 -5.828125 6.773438 -5.011719 6.773438 -3.398438 C 6.773438 -1.800781 5.554688 -0.980469 4.332031 -0.980469 C 3.109375 -0.980469 1.890625 -1.789062 1.890625 -3.398438 Z M 1.890625 -3.398438 "/></g></g></g><g fill="#000000" fill-opacity="1"><g transform="translate(183.446801, 510.922656)"><g><path d="M 2.164062 -5.96875 L 2.164062 -6.800781 L 0.945312 -6.800781 L 0.945312 0 L 2.164062 0 L 2.164062 -3.6875 C 2.164062 -4.9375 3.121094 -5.855469 4.269531 -5.855469 C 4.46875 -5.855469 4.683594 -5.828125 4.898438 -5.765625 L 4.898438 -6.851562 C 4.621094 -6.914062 4.355469 -6.949219 4.09375 -6.949219 C 3.335938 -6.949219 2.65625 -6.648438 2.164062 -5.96875 Z M 2.164062 -5.96875 "/></g></g></g><g fill="#000000" fill-opacity="1"><g transform="translate(188.734101, 510.922656)"><g/></g></g><g fill="#000000" fill-opacity="1"><g transform="translate(191.868718, 510.922656)"><g><path d="M 8.019531 0 L 8.019531 -6.8125 L 6.785156 -6.8125 L 6.800781 -5.90625 C 6.195312 -6.722656 5.175781 -6.925781 4.332031 -6.925781 C 2.027344 -6.925781 0.691406 -5.277344 0.691406 -3.4375 C 0.691406 -1.5625 1.976562 0.113281 4.355469 0.113281 C 5.199219 0.101562 6.296875 -0.175781 6.785156 -0.917969 L 6.785156 0 Z M 6.785156 -3.414062 C 6.785156 -1.773438 5.464844 -0.980469 4.332031 -0.980469 C 2.820312 -0.980469 1.925781 -2.152344 1.925781 -3.4375 C 1.925781 -4.785156 2.832031 -5.84375 4.332031 -5.84375 C 5.488281 -5.84375 6.785156 -5.035156 6.785156 -3.414062 Z M 6.785156 -3.414062 "/></g></g></g><g fill="#000000" fill-opacity="1"><g transform="translate(200.706066, 510.922656)"><g/></g></g><g fill="#000000" fill-opacity="1"><g transform="translate(203.840683, 510.922656)"><g><path d="M 2.179688 -5.96875 L 2.179688 -6.8125 L 0.945312 -6.8125 L 0.945312 0 L 2.179688 0 L 2.179688 -3.703125 C 2.179688 -4.886719 2.882812 -5.816406 4.179688 -5.816406 C 5.667969 -5.816406 6.007812 -4.9375 6.007812 -3.652344 L 6.007812 0 L 7.226562 0 L 7.226562 -3.664062 C 7.226562 -5.617188 6.347656 -6.914062 4.269531 -6.914062 C 3.414062 -6.914062 2.683594 -6.699219 2.179688 -5.96875 Z M 2.179688 -5.96875 "/></g></g></g><g fill="#000000" fill-opacity="1"><g transform="translate(211.998232, 510.922656)"><g><path d="M 7.628906 -3.703125 C 7.492188 -5.84375 5.828125 -6.914062 4.140625 -6.914062 C 2.34375 -6.914062 0.605469 -5.742188 0.605469 -3.398438 C 0.605469 -1.058594 2.367188 0.125 4.117188 0.125 C 5.515625 0.125 6.914062 -0.617188 7.429688 -2.101562 L 6.15625 -2.101562 C 5.753906 -1.335938 4.972656 -0.96875 4.128906 -0.96875 C 3.109375 -0.96875 1.839844 -1.773438 1.839844 -3.109375 L 7.605469 -3.109375 C 7.628906 -3.222656 7.644531 -3.347656 7.644531 -3.488281 C 7.644531 -3.5625 7.644531 -3.625 7.628906 -3.703125 Z M 6.332031 -4.128906 L 1.890625 -4.128906 C 2.140625 -5.339844 3.148438 -5.828125 4.140625 -5.828125 C 5.125 -5.828125 6.09375 -5.351562 6.332031 -4.128906 Z M 6.332031 -4.128906 "/></g></g></g><g fill="#000000" fill-opacity="1"><g transform="translate(220.306853, 510.922656)"><g><path d="M 2.214844 -4.949219 L 1.648438 -6.8125 L 0.351562 -6.8125 L 2.582031 0.0507812 L 3.511719 0.0507812 L 4.355469 -2.617188 L 4.949219 -4.671875 L 5.539062 -2.617188 L 6.371094 0.0507812 L 7.316406 0.0507812 L 9.542969 -6.8125 L 8.246094 -6.8125 L 7.667969 -4.949219 L 6.863281 -2.027344 L 5.488281 -6.8125 L 4.394531 -6.8125 L 3.035156 -2.027344 Z M 2.214844 -4.949219 "/></g></g></g><g fill="#000000" fill-opacity="1"><g transform="translate(81.370174, 528.496314)"><g><path d="M 2.214844 -4.949219 L 1.648438 -6.8125 L 0.351562 -6.8125 L 2.582031 0.0507812 L 3.511719 0.0507812 L 4.355469 -2.617188 L 4.949219 -4.671875 L 5.539062 -2.617188 L 6.371094 0.0507812 L 7.316406 0.0507812 L 9.542969 -6.8125 L 8.246094 -6.8125 L 7.667969 -4.949219 L 6.863281 -2.027344 L 5.488281 -6.8125 L 4.394531 -6.8125 L 3.035156 -2.027344 Z M 2.214844 -4.949219 "/></g></g></g><g fill="#000000" fill-opacity="1"><g transform="translate(91.239804, 528.496314)"><g><path d="M 8.019531 0 L 8.019531 -6.8125 L 6.785156 -6.8125 L 6.800781 -5.90625 C 6.195312 -6.722656 5.175781 -6.925781 4.332031 -6.925781 C 2.027344 -6.925781 0.691406 -5.277344 0.691406 -3.4375 C 0.691406 -1.5625 1.976562 0.113281 4.355469 0.113281 C 5.199219 0.101562 6.296875 -0.175781 6.785156 -0.917969 L 6.785156 0 Z M 6.785156 -3.414062 C 6.785156 -1.773438 5.464844 -0.980469 4.332031 -0.980469 C 2.820312 -0.980469 1.925781 -2.152344 1.925781 -3.4375 C 1.925781 -4.785156 2.832031 -5.84375 4.332031 -5.84375 C 5.488281 -5.84375 6.785156 -5.035156 6.785156 -3.414062 Z M 6.785156 -3.414062 "/></g></g></g><g fill="#000000" fill-opacity="1"><g transform="translate(100.077152, 528.496314)"><g><path d="M 5.527344 -6.914062 L 4.355469 -3.878906 L 3.5625 -1.660156 L 2.796875 -3.890625 L 1.5625 -6.914062 L 0.25 -6.914062 L 2.910156 -0.351562 L 1.953125 2.101562 L 3.261719 2.101562 L 6.835938 -6.914062 Z M 5.527344 -6.914062 "/></g></g></g><g fill="#000000" fill-opacity="1"><g transform="translate(107.152064, 528.496314)"><g/></g></g><g fill="#000000" fill-opacity="1"><g transform="translate(110.286678, 528.496314)"><g><path d="M 7.996094 -3.398438 C 7.996094 -5.742188 6.183594 -6.925781 4.34375 -6.925781 C 2.492188 -6.925781 0.65625 -5.753906 0.65625 -3.398438 C 0.65625 -1.058594 2.480469 0.125 4.304688 0.125 C 6.15625 0.125 7.996094 -1.046875 7.996094 -3.398438 Z M 1.890625 -3.398438 C 1.890625 -5.023438 3.109375 -5.828125 4.34375 -5.828125 C 5.554688 -5.828125 6.773438 -5.011719 6.773438 -3.398438 C 6.773438 -1.800781 5.554688 -0.980469 4.332031 -0.980469 C 3.109375 -0.980469 1.890625 -1.789062 1.890625 -3.398438 Z M 1.890625 -3.398438 "/></g></g></g><g fill="#000000" fill-opacity="1"><g transform="translate(119.023316, 528.496314)"><g><path d="M 1.449219 0 L 2.683594 0 L 2.683594 -5.792969 L 4.066406 -5.792969 L 4.066406 -6.863281 L 2.683594 -6.863281 C 2.683594 -7.707031 3.121094 -7.917969 3.777344 -7.917969 C 3.914062 -7.917969 4.066406 -7.90625 4.21875 -7.894531 L 4.21875 -8.925781 C 4.042969 -8.941406 3.878906 -8.953125 3.726562 -8.953125 C 2.242188 -8.953125 1.449219 -8.347656 1.449219 -6.863281 L 0.402344 -6.863281 L 0.402344 -5.792969 L 1.449219 -5.792969 Z M 1.449219 0 "/></g></g></g><g fill="#000000" fill-opacity="1"><g transform="translate(123.44199, 528.496314)"><g/></g></g><g fill="#000000" fill-opacity="1"><g transform="translate(126.576604, 528.496314)"><g><path d="M 0.933594 1.988281 L 2.164062 1.988281 L 2.164062 -0.894531 C 2.769531 -0.0898438 3.613281 0.113281 4.457031 0.113281 C 6.761719 0.113281 7.96875 -1.535156 7.96875 -3.386719 C 7.96875 -5.25 6.835938 -6.925781 4.46875 -6.925781 C 3.613281 -6.925781 2.65625 -6.648438 2.164062 -5.90625 L 2.164062 -6.8125 L 0.933594 -6.8125 Z M 2.164062 -3.414062 C 2.164062 -5.035156 3.324219 -5.84375 4.46875 -5.84375 C 5.96875 -5.84375 6.734375 -4.644531 6.734375 -3.414062 C 6.734375 -2.191406 5.96875 -0.980469 4.457031 -0.980469 C 3.3125 -0.980469 2.164062 -1.789062 2.164062 -3.414062 Z M 2.164062 -3.414062 "/></g></g></g><g fill="#000000" fill-opacity="1"><g transform="translate(135.250299, 528.496314)"><g><path d="M 8.019531 0 L 8.019531 -6.8125 L 6.785156 -6.8125 L 6.800781 -5.90625 C 6.195312 -6.722656 5.175781 -6.925781 4.332031 -6.925781 C 2.027344 -6.925781 0.691406 -5.277344 0.691406 -3.4375 C 0.691406 -1.5625 1.976562 0.113281 4.355469 0.113281 C 5.199219 0.101562 6.296875 -0.175781 6.785156 -0.917969 L 6.785156 0 Z M 6.785156 -3.414062 C 6.785156 -1.773438 5.464844 -0.980469 4.332031 -0.980469 C 2.820312 -0.980469 1.925781 -2.152344 1.925781 -3.4375 C 1.925781 -4.785156 2.832031 -5.84375 4.332031 -5.84375 C 5.488281 -5.84375 6.785156 -5.035156 6.785156 -3.414062 Z M 6.785156 -3.414062 "/></g></g></g><g fill="#000000" fill-opacity="1"><g transform="translate(144.087647, 528.496314)"><g><path d="M 2.554688 -6.8125 L 2.554688 -8.324219 L 1.320312 -8.082031 L 1.320312 -6.8125 L 0.300781 -6.8125 L 0.300781 -5.828125 L 1.320312 -5.828125 L 1.320312 -2.003906 C 1.320312 -0.414062 2.191406 0.0390625 3.527344 0.0390625 C 3.703125 0.0390625 3.890625 0.0234375 4.09375 0.0117188 L 4.09375 -1.019531 C 3.902344 -1.007812 3.726562 -0.996094 3.574219 -0.996094 C 2.957031 -0.996094 2.554688 -1.183594 2.554688 -1.988281 L 2.554688 -5.828125 L 4.054688 -5.828125 L 4.054688 -6.8125 Z M 2.554688 -6.8125 "/></g></g></g><g fill="#000000" fill-opacity="1"><g transform="translate(148.418202, 528.496314)"><g><path d="M 0.867188 -8.5625 C 0.867188 -8.082031 1.257812 -7.84375 1.636719 -7.84375 C 2.027344 -7.84375 2.40625 -8.082031 2.40625 -8.5625 C 2.40625 -9.039062 2.027344 -9.265625 1.648438 -9.265625 C 1.257812 -9.265625 0.867188 -9.027344 0.867188 -8.5625 Z M 1.019531 -6.886719 L 2.253906 -6.886719 L 2.253906 0 L 1.019531 0 Z M 1.019531 -6.886719 "/></g></g></g><g fill="#000000" fill-opacity="1"><g transform="translate(151.804594, 528.496314)"><g><path d="M 7.628906 -3.703125 C 7.492188 -5.84375 5.828125 -6.914062 4.140625 -6.914062 C 2.34375 -6.914062 0.605469 -5.742188 0.605469 -3.398438 C 0.605469 -1.058594 2.367188 0.125 4.117188 0.125 C 5.515625 0.125 6.914062 -0.617188 7.429688 -2.101562 L 6.15625 -2.101562 C 5.753906 -1.335938 4.972656 -0.96875 4.128906 -0.96875 C 3.109375 -0.96875 1.839844 -1.773438 1.839844 -3.109375 L 7.605469 -3.109375 C 7.628906 -3.222656 7.644531 -3.347656 7.644531 -3.488281 C 7.644531 -3.5625 7.644531 -3.625 7.628906 -3.703125 Z M 6.332031 -4.128906 L 1.890625 -4.128906 C 2.140625 -5.339844 3.148438 -5.828125 4.140625 -5.828125 C 5.125 -5.828125 6.09375 -5.351562 6.332031 -4.128906 Z M 6.332031 -4.128906 "/></g></g></g><g fill="#000000" fill-opacity="1"><g transform="translate(160.11321, 528.496314)"><g><path d="M 2.179688 -5.96875 L 2.179688 -6.8125 L 0.945312 -6.8125 L 0.945312 0 L 2.179688 0 L 2.179688 -3.703125 C 2.179688 -4.886719 2.882812 -5.816406 4.179688 -5.816406 C 5.667969 -5.816406 6.007812 -4.9375 6.007812 -3.652344 L 6.007812 0 L 7.226562 0 L 7.226562 -3.664062 C 7.226562 -5.617188 6.347656 -6.914062 4.269531 -6.914062 C 3.414062 -6.914062 2.683594 -6.699219 2.179688 -5.96875 Z M 2.179688 -5.96875 "/></g></g></g><g fill="#000000" fill-opacity="1"><g transform="translate(168.270758, 528.496314)"><g><path d="M 2.554688 -6.8125 L 2.554688 -8.324219 L 1.320312 -8.082031 L 1.320312 -6.8125 L 0.300781 -6.8125 L 0.300781 -5.828125 L 1.320312 -5.828125 L 1.320312 -2.003906 C 1.320312 -0.414062 2.191406 0.0390625 3.527344 0.0390625 C 3.703125 0.0390625 3.890625 0.0234375 4.09375 0.0117188 L 4.09375 -1.019531 C 3.902344 -1.007812 3.726562 -0.996094 3.574219 -0.996094 C 2.957031 -0.996094 2.554688 -1.183594 2.554688 -1.988281 L 2.554688 -5.828125 L 4.054688 -5.828125 L 4.054688 -6.8125 Z M 2.554688 -6.8125 "/></g></g></g><g fill="#000000" fill-opacity="1"><g transform="translate(172.601313, 528.496314)"><g/></g></g><g fill="#000000" fill-opacity="1"><g transform="translate(175.73593, 528.496314)"><g><path d="M 7.617188 -2.59375 L 6.347656 -2.59375 C 6.042969 -1.511719 5.136719 -0.980469 4.207031 -0.980469 C 3.035156 -0.980469 1.875 -1.773438 1.875 -3.414062 C 1.875 -5.035156 3.046875 -5.828125 4.191406 -5.828125 C 5.125 -5.828125 6.042969 -5.300781 6.347656 -4.21875 L 7.617188 -4.21875 C 7.277344 -6.03125 5.730469 -6.925781 4.179688 -6.925781 C 2.40625 -6.925781 0.640625 -5.765625 0.640625 -3.414062 C 0.640625 -1.070312 2.390625 0.101562 4.15625 0.101562 C 5.703125 0.101562 7.277344 -0.769531 7.617188 -2.59375 Z M 7.617188 -2.59375 "/></g></g></g><g fill="#000000" fill-opacity="1"><g transform="translate(183.98161, 528.496314)"><g><path d="M 8.019531 0 L 8.019531 -6.8125 L 6.785156 -6.8125 L 6.800781 -5.90625 C 6.195312 -6.722656 5.175781 -6.925781 4.332031 -6.925781 C 2.027344 -6.925781 0.691406 -5.277344 0.691406 -3.4375 C 0.691406 -1.5625 1.976562 0.113281 4.355469 0.113281 C 5.199219 0.101562 6.296875 -0.175781 6.785156 -0.917969 L 6.785156 0 Z M 6.785156 -3.414062 C 6.785156 -1.773438 5.464844 -0.980469 4.332031 -0.980469 C 2.820312 -0.980469 1.925781 -2.152344 1.925781 -3.4375 C 1.925781 -4.785156 2.832031 -5.84375 4.332031 -5.84375 C 5.488281 -5.84375 6.785156 -5.035156 6.785156 -3.414062 Z M 6.785156 -3.414062 "/></g></g></g><g fill="#000000" fill-opacity="1"><g transform="translate(192.818958, 528.496314)"><g><path d="M 2.164062 -5.96875 L 2.164062 -6.800781 L 0.945312 -6.800781 L 0.945312 0 L 2.164062 0 L 2.164062 -3.6875 C 2.164062 -4.9375 3.121094 -5.855469 4.269531 -5.855469 C 4.46875 -5.855469 4.683594 -5.828125 4.898438 -5.765625 L 4.898438 -6.851562 C 4.621094 -6.914062 4.355469 -6.949219 4.09375 -6.949219 C 3.335938 -6.949219 2.65625 -6.648438 2.164062 -5.96875 Z M 2.164062 -5.96875 "/></g></g></g><g fill="#000000" fill-opacity="1"><g transform="translate(198.106258, 528.496314)"><g><path d="M 0.867188 -8.5625 C 0.867188 -8.082031 1.257812 -7.84375 1.636719 -7.84375 C 2.027344 -7.84375 2.40625 -8.082031 2.40625 -8.5625 C 2.40625 -9.039062 2.027344 -9.265625 1.648438 -9.265625 C 1.257812 -9.265625 0.867188 -9.027344 0.867188 -8.5625 Z M 1.019531 -6.886719 L 2.253906 -6.886719 L 2.253906 0 L 1.019531 0 Z M 1.019531 -6.886719 "/></g></g></g><g fill="#000000" fill-opacity="1"><g transform="translate(201.492656, 528.496314)"><g><path d="M 2.179688 -5.96875 L 2.179688 -6.8125 L 0.945312 -6.8125 L 0.945312 0 L 2.179688 0 L 2.179688 -3.703125 C 2.179688 -4.886719 2.882812 -5.816406 4.179688 -5.816406 C 5.667969 -5.816406 6.007812 -4.9375 6.007812 -3.652344 L 6.007812 0 L 7.226562 0 L 7.226562 -3.664062 C 7.226562 -5.617188 6.347656 -6.914062 4.269531 -6.914062 C 3.414062 -6.914062 2.683594 -6.699219 2.179688 -5.96875 Z M 2.179688 -5.96875 "/></g></g></g><g fill="#000000" fill-opacity="1"><g transform="translate(209.650204, 528.496314)"><g><path d="M 7.769531 -0.25 L 7.769531 -6.8125 L 6.546875 -6.8125 L 6.546875 -5.90625 C 6.042969 -6.648438 5.085938 -6.925781 4.242188 -6.925781 C 1.875 -6.925781 0.628906 -5.25 0.628906 -3.386719 C 0.628906 -1.535156 1.953125 -0.0117188 4.242188 -0.0117188 C 5.085938 -0.0117188 5.941406 -0.1875 6.535156 -0.96875 L 6.535156 -0.25 C 6.535156 1.082031 5.300781 1.585938 4.191406 1.585938 C 3.3125 1.585938 2.179688 1.308594 2.179688 0.453125 L 0.957031 0.453125 C 0.957031 2.003906 2.554688 2.683594 4.269531 2.683594 C 5.957031 2.683594 7.769531 1.863281 7.769531 -0.25 Z M 4.230469 -1.09375 C 2.730469 -1.09375 1.875 -2.191406 1.863281 -3.386719 C 1.863281 -4.609375 2.730469 -5.84375 4.253906 -5.84375 C 5.765625 -5.84375 6.535156 -4.808594 6.535156 -3.574219 C 6.535156 -2.316406 5.765625 -1.09375 4.230469 -1.09375 Z M 4.230469 -1.09375 "/></g></g></g></svg>